<svg id="Layer_1" data-name="Layer 1" xmlns="http://www.w3.org/2000/svg" viewBox="0 0 391 386.62"><title>floorplan</title><g id="Elevator" style="opacity:0.30000000000000004"><polygon points="151 13.43 167 13.43 168.5 18.43 153 18.43 151 13.43" style="fill:#c1c1c1"/><rect x="153" y="18.43" width="15.5" height="314.32" style="fill:#878787"/><polygon points="153 18.43 151 13.43 151 326.43 153 332.74 153 18.43" style="fill:#c1c1c1"/><polygon points="151 76.43 167 76.43 168.5 81.43 153 81.43 151 76.43" style="fill:#c1c1c1"/><polygon points="151 138.43 167 138.43 168.5 143.43 153 143.43 151 138.43" style="fill:#c1c1c1"/><polygon points="151 198.43 167 198.43 168.5 203.43 153 203.43 151 198.43" style="fill:#c1c1c1"/><polygon points="151 257.43 167 257.43 168.5 262.43 153 262.43 151 257.43" style="fill:#c1c1c1"/></g><path id="_5F_floor" data-name="5F_floor" d="M406.17,245s16.83,10,19.5,10H508l3,25H484l27,13h59l-18.33-48H406.17Z" transform="translate(-367 -231.57)" style="fill:#8c8c8c;opacity:0.5"/><polygon id="_4F_floor" data-name="4F_floor" points="39 76.43 185 76.43 203 122.43 138 122.43 39 76.43" style="fill:#8c8c8c;opacity:0.5"/><polygon id="_3F_floor" data-name="3F_floor" points="201.75 182.93 135.38 183.18 116 172.93 116 156.43 72 156.43 39 138.43 189 138.43 190.5 143.43 221 143.43 231 172.43 199 172.43 201.75 182.93" style="fill:#8c8c8c;opacity:0.5"/><polygon id="_2F_floor" data-name="2F_floor" points="301 198.43 205 198.43 202.5 202.93 204 207.43 190 207.43 187 198.43 39 198.43 71 214.43 114 214.43 114 233.43 135 244.43 198 244.43 197 234.43 211 234.43 214.5 244.43 229 244.43 229 238.43 348 238.43 340.5 231.43 227 231.43 218 205.43 306 205.43 301 198.43" style="fill:#8c8c8c;opacity:0.5"/><path id="Grass" d="M394.17,485S365,549,367.33,549H758l-45-64H394.17Z" transform="translate(-367 -231.57)" style="fill:#3b8700;opacity:0.30000000000000004"/><polygon id="Grass2" points="27 322.43 278 322.43 313.33 385.43 0 385.43 27 322.43" style="fill:#3b8700;opacity:0.30000000000000004"/><polygon id="_1F_floor" data-name="1F_floor" points="240 311.43 121 311.43 121 294.43 114 294.43 35.5 257.43 203 257.43 206.5 262.43 221 262.43 240 311.43" style="fill:#8c8c8c;opacity:0.5"/><polygon id="BF_floor" points="30 327.43 203 327.43 205 330.43 217 330.43 234.33 379.43 173 379.43 173 374.43 95.69 374.59 30 327.43" style="fill:#8c8c8c;opacity:0.5"/><rect id="_503" data-name="503" x="70.29" y="12.43" width="16.21" height="6.67" style="fill:none;stroke:#000;stroke-miterlimit:10"/><rect id="_504" data-name="504" x="86.5" y="12.43" width="17.45" height="6.67" style="fill:none;stroke:#000;stroke-miterlimit:10"/><rect id="_505" data-name="505" x="103.95" y="12.43" width="18.06" height="6.67" style="fill:none;stroke:#000;stroke-miterlimit:10"/><path id="_501" data-name="501" d="M518.5,258.5s1,9.33,1.5,9.67,40.83,0.08,40.83.08l-3.76-9.75H518.5Z" transform="translate(-367 -231.57)" style="fill:none;stroke:#000;stroke-miterlimit:10"/><polygon id="_502" data-name="502" points="155 48.93 199 48.93 193.83 36.68 153 36.59 155 48.93" style="fill:none;stroke:#000;stroke-miterlimit:10"/><rect id="_404" data-name="404" x="71" y="74.76" width="16.12" height="5.5" style="fill:none;stroke:#000;stroke-miterlimit:10"/><rect id="_405" data-name="405" x="87.12" y="74.76" width="16.12" height="5.5" style="fill:none;stroke:#000;stroke-miterlimit:10"/><rect id="_406" data-name="406" x="103.24" y="74.76" width="16.12" height="5.5" style="fill:none;stroke:#000;stroke-miterlimit:10"/><rect id="_407" data-name="407" x="119.36" y="74.76" width="11.75" height="5.5" style="fill:none;stroke:#000;stroke-miterlimit:10"/><polygon id="_401" data-name="401" points="144.33 98.26 119.36 98.26 119.36 89.43 142.83 89.43 144.33 98.26" style="fill:none;stroke:#000;stroke-miterlimit:10"/><polygon id="_402" data-name="402" points="146 107.09 119.36 107.09 119.36 98.26 144.4 98.26 146 107.09" style="fill:none;stroke:#000;stroke-miterlimit:10"/><polygon id="_403" data-name="403" points="86.5 84.93 104 84.93 105 94.93 86.5 94.93 86.5 84.93" style="fill:none;stroke:#000;stroke-miterlimit:10"/><polygon id="_303" data-name="303" points="70.92 136.34 70.33 141.93 80.5 141.93 80.5 136.43 70.92 136.34" style="fill:none;stroke:#000;stroke-miterlimit:10"/><rect id="_304" data-name="304" x="80.5" y="136.43" width="11.17" height="5.5" style="fill:none;stroke:#000;stroke-miterlimit:10"/><rect id="_305" data-name="305" x="91.67" y="136.43" width="11.17" height="5.5" style="fill:none;stroke:#000;stroke-miterlimit:10"/><rect id="_306" data-name="306" x="102.83" y="136.39" width="11.17" height="5.5" style="fill:none;stroke:#000;stroke-miterlimit:10"/><rect id="_307" data-name="307" x="114" y="136.39" width="11.17" height="5.5" style="fill:none;stroke:#000;stroke-miterlimit:10"/><polygon id="_302" data-name="302" points="92.83 153.76 78.5 153.76 80.5 148.26 92.83 148.26 92.83 153.76" style="fill:none;stroke:#000;stroke-miterlimit:10"/><polygon id="_301" data-name="301" points="145.5 150.93 185 150.93 189.5 170.93 145.5 170.93 145.5 150.93" style="fill:none;stroke:#000;stroke-miterlimit:10"/><polygon id="ReceptionHall" points="196.08 150.93 223.88 151.01 230.17 170.93 203 170.93 196.08 150.93" style="fill:none;stroke:#000;stroke-miterlimit:10"/><polygon id="MainHall" points="144 273.93 193 273.93 196.17 290.93 146 290.93 145.67 288.76 129.5 286.09 129.5 278.43 144.17 276.43 144 273.93" style="fill:none;stroke:#000;stroke-miterlimit:10"/><text transform="translate(66.79 9.43)" style="font-size:11px;font-family:Helvetica Neue">503</text><text transform="translate(169.45 35.59)" style="font-size:11px;font-family:Helvetica Neue">501</text><text transform="translate(86.08 9.43)" style="font-size:11px;font-family:Helvetica Neue">504</text><text transform="translate(105 9.43)" style="font-size:11px;font-family:Helvetica Neue">505</text><text transform="translate(144.33 285.93)" style="font-size:11px;font-family:Helvetica Neue">Main Hall</text><text transform="translate(39.17 60.93)" style="font-size:16px;font-family:Helvetica Neue;font-weight:700">5F</text><text transform="translate(39.17 121.93)" style="font-size:16px;font-family:Helvetica Neue;font-weight:700">4F</text><text transform="translate(39.17 182.93)" style="font-size:16px;font-family:Helvetica Neue;font-weight:700">3F</text><text transform="translate(39 243.93)" style="font-size:16px;font-family:Helvetica Neue;font-weight:700">2F</text><text transform="translate(39 310.93)" style="font-size:16px;font-family:Helvetica Neue;font-weight:700">1F</text><text transform="translate(39.17 378.93)" style="font-size:16px;font-family:Helvetica Neue;font-weight:700">BF</text><line x1="92" y1="224.43" x2="99" y2="224.43"/><text transform="translate(169.5 47.26)" style="font-size:11px;font-family:Helvetica Neue">502</text><text transform="translate(249 300.46)" style="font-size:11px;font-family:Helvetica Neue">Main Hall Entrance</text><polygon id="MainHall-2" data-name="MainHall" points="144 339.93 193 339.93 196.17 356.93 146 356.93 145.67 354.76 129.5 352.09 129.5 344.43 144.17 342.43 144 339.93" style="fill:none;stroke:#000;stroke-miterlimit:10"/><text transform="translate(144.33 351.93)" style="font-size:11px;font-family:Helvetica Neue">Main Hall</text><g id="Signs"><polygon points="96.19 217.45 99.87 224.95 92.51 224.95 96.19 217.45" style="fill:#ce0000"/><polygon points="211.94 218.45 219.44 214.77 219.44 222.13 211.94 218.45" style="fill:#ce0000"/><text transform="translate(224.33 222.13)" style="font-size:11px;font-family:Helvetica Neue">Entrance</text><text transform="translate(66.79 232.46)" style="font-size:11px;font-family:Helvetica Neue">Entrance</text><polygon points="236.61 296.78 244.11 293.1 244.11 300.46 236.61 296.78" style="fill:#ce0000"/><text transform="translate(244.11 277.13)" style="font-size:10px;font-family:Helvetica Neue;font-style:italic">Shimin-Hi<tspan x="43.89" y="0">r</tspan><tspan x="47.04" y="0">oba Squa</tspan><tspan x="89.84" y="0">r</tspan><tspan x="92.99" y="0">e</tspan></text></g></svg>