<svg id="Layer_1" data-name="Layer 1" xmlns="http://www.w3.org/2000/svg" viewBox="0 0 391 384.91"><defs><style>.cls-1,.cls-5{opacity:0.3;}.cls-2{fill:#c1c1c1;}.cls-3{fill:#878787;}.cls-4{fill:#8c8c8c;opacity:0.5;}.cls-12,.cls-14,.cls-4,.cls-5,.cls-7,.cls-8,.cls-9{isolation:isolate;}.cls-5{fill:#3b8700;}.cls-10,.cls-6{fill:none;}.cls-6{stroke:#000;}.cls-13,.cls-6{stroke-miterlimit:10;}.cls-7{font-size:9px;}.cls-7,.cls-8{font-family:HelveticaNeue, Helvetica Neue;}.cls-8{font-size:11px;}.cls-9{font-size:16px;font-family:HelveticaNeue-Bold, Helvetica Neue;font-weight:700;}.cls-11{fill:#ce0000;}.cls-12{font-size:10px;font-family:HelveticaNeue-Italic, Helvetica Neue;font-style:italic;}.cls-13{fill:#de6686;stroke:#de6686;}.cls-14{font-size:9.82px;font-family:HelveticaNeue-Medium, Helvetica Neue;}</style></defs><title>floorplan</title><g id="Elevator" class="cls-1"><polygon class="cls-2" points="151 11.71 167 11.71 168.5 16.71 153 16.71 151 11.71"/><rect class="cls-3" x="153" y="16.71" width="15.5" height="314.32"/><polygon class="cls-2" points="153 16.71 151 11.71 151 324.71 153 331.02 153 16.71"/><polygon class="cls-2" points="151 74.71 167 74.71 168.5 79.71 153 79.71 151 74.71"/><polygon class="cls-2" points="151 136.71 167 136.71 168.5 141.71 153 141.71 151 136.71"/><polygon class="cls-2" points="151 196.71 167 196.71 168.5 201.71 153 201.71 151 196.71"/><polygon class="cls-2" points="151 255.71 167 255.71 168.5 260.71 153 260.71 151 255.71"/></g><path id="_5F_floor" data-name=" 5F floor" class="cls-4" d="M39.17,11.71s16.83,10,19.5,10H141l3,25H117l27,13h59l-18.33-48Z" transform="translate(0 0)"/><polygon id="_4F_floor" data-name=" 4F floor" class="cls-4" points="39 74.71 185 74.71 203 120.71 138 120.71 39 74.71"/><polygon id="_3F_floor" data-name=" 3F floor" class="cls-4" points="201.75 181.21 135.38 181.46 116 171.21 116 154.71 72 154.71 39 136.71 189 136.71 190.5 141.71 221 141.71 231 170.71 199 170.71 201.75 181.21"/><polygon id="_2F_floor" data-name=" 2F floor" class="cls-4" points="301 196.71 205 196.71 202.5 201.21 204 205.71 190 205.71 187 196.71 39 196.71 71 212.71 114 212.71 114 231.71 135 242.71 198 242.71 197 232.71 211 232.71 214.5 242.71 229 242.71 229 236.71 348 236.71 340.5 229.71 227 229.71 218 203.71 306 203.71 301 196.71"/><path id="Grass" class="cls-5" d="M27.17,251.71s-29.17,64-26.84,64H391l-45-64Z" transform="translate(0 0)"/><polygon id="Grass2" class="cls-5" points="27 318.71 278 318.71 313.33 381.71 0 381.71 27 318.71"/><polygon id="_1F_floor" data-name=" 1F floor" class="cls-4" points="240 309.71 121 309.71 121 292.71 114 292.71 35.5 255.71 203 255.71 206.5 260.71 221 260.71 240 309.71"/><polygon id="BF_floor" data-name="BF floor" class="cls-4" points="30 325.71 203 325.71 205 328.71 217 328.71 234.33 377.71 173 377.71 173 372.71 95.69 372.87 30 325.71"/><rect id="_503" data-name=" 503" class="cls-6" x="70.29" y="10.71" width="16.21" height="6.67"/><rect id="_504" data-name=" 504" class="cls-6" x="86.5" y="10.71" width="17.45" height="6.67"/><rect id="_505" data-name=" 505" class="cls-6" x="103.95" y="10.71" width="18.06" height="6.67"/><path id="_501" data-name=" 501" class="cls-6" d="M151.5,25.21s1,9.33,1.5,9.67,40.83.08,40.83.08l-3.76-9.75Z" transform="translate(0 0)"/><polygon id="_502" data-name=" 502" class="cls-6" points="155 47.21 199 47.21 193.83 34.96 153 34.87 155 47.21"/><rect id="_404" data-name=" 404" class="cls-6" x="71" y="73.04" width="16.12" height="5.5"/><rect id="_405" data-name=" 405" class="cls-6" x="87.12" y="73.04" width="16.12" height="5.5"/><rect id="_406" data-name=" 406" class="cls-6" x="103.24" y="73.04" width="16.12" height="5.5"/><rect id="_407" data-name=" 407" class="cls-6" x="119.36" y="73.04" width="11.75" height="5.5"/><polygon id="_401" data-name=" 401" class="cls-6" points="144.33 96.54 119.36 96.54 119.36 87.71 142.83 87.71 144.33 96.54"/><polygon id="_402" data-name=" 402" class="cls-6" points="146 105.37 119.36 105.37 119.36 96.54 144.4 96.54 146 105.37"/><polygon id="_403" data-name=" 403" class="cls-6" points="86.5 83.21 104 83.21 105 93.21 86.5 93.21 86.5 83.21"/><polygon id="_303" data-name=" 303" class="cls-6" points="70.92 134.62 70.33 140.21 80.5 140.21 80.5 134.71 70.92 134.62"/><rect id="_304" data-name=" 304" class="cls-6" x="80.5" y="134.71" width="11.17" height="5.5"/><rect id="_305" data-name=" 305" class="cls-6" x="91.67" y="134.71" width="11.17" height="5.5"/><rect id="_306" data-name=" 306" class="cls-6" x="102.83" y="134.67" width="11.17" height="5.5"/><rect id="_307" data-name=" 307" class="cls-6" x="114" y="134.67" width="11.17" height="5.5"/><polygon id="_302" data-name=" 302" class="cls-6" points="92.83 152.04 78.5 152.04 80.5 146.54 92.83 146.54 92.83 152.04"/><polygon id="_301" data-name=" 301" class="cls-6" points="145.5 149.21 185 149.21 189.5 169.21 145.5 169.21 145.5 149.21"/><polygon id="ReceptionHall" class="cls-6" points="196.08 149.21 223.88 149.29 230.17 169.21 203 169.21 196.08 149.21"/><polygon id="MainHall" class="cls-6" points="144 272.21 193 272.21 196.17 289.21 146 289.21 145.67 287.04 129.5 284.37 129.5 276.71 144.17 274.71 144 272.21"/><text class="cls-7" transform="translate(69.79 7.71)">503</text><text class="cls-7" transform="translate(169.45 33.87)">501</text><text class="cls-7" transform="translate(87.08 7.71)">504</text><text class="cls-7" transform="translate(105 7.71)">505</text><text class="cls-8" transform="translate(144.33 284.21)">Main Hall</text><text class="cls-9" transform="translate(39.17 59.21)">5F</text><text class="cls-9" transform="translate(39.17 120.21)">4F</text><text class="cls-9" transform="translate(39.17 181.21)">3F</text><text class="cls-9" transform="translate(39 242.21)">2F</text><text class="cls-9" transform="translate(39 309.21)">1F</text><text class="cls-9" transform="translate(39.17 377.21)">BF</text><line class="cls-10" x1="92" y1="222.71" x2="99" y2="222.71"/><text class="cls-7" transform="translate(169.5 45.54)">502</text><text class="cls-8" transform="translate(249 298.74)">Main Hall Entrance</text><polygon id="MainHall-2" class="cls-6" points="144 338.21 193 338.21 196.17 355.21 146 355.21 145.67 353.04 129.5 350.37 129.5 342.71 144.17 340.71 144 338.21"/><text class="cls-8" transform="translate(144.33 350.21)">Main Hall</text><g id="Signs"><polygon class="cls-11" points="96.19 215.73 99.87 223.23 92.51 223.23 96.19 215.73"/><polygon class="cls-11" points="211.94 216.73 219.44 213.05 219.44 220.41 211.94 216.73"/><text class="cls-8" transform="translate(224.33 220.41)">Entrance</text><text class="cls-8" transform="translate(66.79 230.74)">Entrance</text><polygon class="cls-11" points="236.61 295.06 244.11 291.38 244.11 298.74 236.61 295.06"/><text class="cls-12" transform="translate(244.11 275.41)">Shimin-Hi</text><text class="cls-12" transform="translate(288 275.41)">r</text><text class="cls-12" transform="translate(291.15 275.41)">oba Squa</text><text class="cls-12" transform="translate(333.95 275.41)">r</text><text class="cls-12" transform="translate(337.1 275.41)">e</text></g><rect id="_505-2" data-name=" 505-2" class="cls-13" x="170.19" y="12.13" width="14.47" height="9.22"/><text class="cls-14" transform="translate(189.5 18.63) scale(0.92 1)">Reception Desk</text><text class="cls-7" transform="translate(69.79 69.71)">404</text><text class="cls-7" transform="translate(87.12 69.71)">405</text><text class="cls-7" transform="translate(102.95 69.71)">406</text><text class="cls-7" transform="translate(120 69.71)">407</text><text class="cls-7" transform="translate(125.23 104.37)">402</text><text class="cls-7" transform="translate(125.17 94.87)">401</text><text class="cls-7" transform="translate(87.12 92.13)">403</text><text class="cls-14" transform="translate(230.17 152.04) scale(0.92 1)">Posters &amp; Demos</text></svg>